<mxfile host="app.diagrams.net" agent="Mozilla/5.0 (Windows NT 10.0; Win64; x64) AppleWebKit/537.36 (KHTML, like Gecko) Chrome/130.0.0.0 Safari/537.36" version="24.8.4">
  <diagram name="Página-1" id="t8WBZfUbjkWZWFF4YgDs">
    <mxGraphModel dx="1434" dy="780" grid="1" gridSize="10" guides="1" tooltips="1" connect="1" arrows="1" fold="1" page="1" pageScale="1" pageWidth="827" pageHeight="1169" math="0" shadow="0">
      <root>
        <mxCell id="0" />
        <mxCell id="1" parent="0" />
        <mxCell id="NsN-bHk12Julp6K8P8RK-3" value="Usuário" style="swimlane;whiteSpace=wrap;html=1;" vertex="1" parent="1">
          <mxGeometry x="30" y="120" width="200" height="500" as="geometry" />
        </mxCell>
        <mxCell id="NsN-bHk12Julp6K8P8RK-4" value="" style="ellipse;html=1;shape=startState;fillColor=#000000;strokeColor=#ff0000;" vertex="1" parent="NsN-bHk12Julp6K8P8RK-3">
          <mxGeometry x="85" y="40" width="30" height="30" as="geometry" />
        </mxCell>
        <mxCell id="NsN-bHk12Julp6K8P8RK-5" value="" style="edgeStyle=orthogonalEdgeStyle;html=1;verticalAlign=bottom;endArrow=open;endSize=8;strokeColor=#ff0000;rounded=0;" edge="1" source="NsN-bHk12Julp6K8P8RK-4" parent="NsN-bHk12Julp6K8P8RK-3">
          <mxGeometry relative="1" as="geometry">
            <mxPoint x="100" y="100" as="targetPoint" />
          </mxGeometry>
        </mxCell>
        <mxCell id="NsN-bHk12Julp6K8P8RK-6" value="Fazer autenticação no caixa eletrônico" style="html=1;whiteSpace=wrap;" vertex="1" parent="NsN-bHk12Julp6K8P8RK-3">
          <mxGeometry x="45" y="100" width="110" height="50" as="geometry" />
        </mxCell>
        <mxCell id="NsN-bHk12Julp6K8P8RK-18" value="Escolher a opção de saque" style="html=1;whiteSpace=wrap;" vertex="1" parent="NsN-bHk12Julp6K8P8RK-3">
          <mxGeometry x="45" y="200" width="110" height="50" as="geometry" />
        </mxCell>
        <mxCell id="NsN-bHk12Julp6K8P8RK-21" value="Informar a quantia do saque" style="html=1;whiteSpace=wrap;" vertex="1" parent="NsN-bHk12Julp6K8P8RK-3">
          <mxGeometry x="45" y="290" width="110" height="45" as="geometry" />
        </mxCell>
        <mxCell id="NsN-bHk12Julp6K8P8RK-20" value="" style="endArrow=open;endFill=1;endSize=12;html=1;rounded=0;exitX=0.5;exitY=1;exitDx=0;exitDy=0;" edge="1" parent="NsN-bHk12Julp6K8P8RK-3" source="NsN-bHk12Julp6K8P8RK-18" target="NsN-bHk12Julp6K8P8RK-21">
          <mxGeometry width="160" relative="1" as="geometry">
            <mxPoint x="180" y="260" as="sourcePoint" />
            <mxPoint x="100" y="300" as="targetPoint" />
          </mxGeometry>
        </mxCell>
        <mxCell id="NsN-bHk12Julp6K8P8RK-31" value="Sacar o dinheiro" style="html=1;whiteSpace=wrap;" vertex="1" parent="NsN-bHk12Julp6K8P8RK-3">
          <mxGeometry x="45" y="380" width="110" height="50" as="geometry" />
        </mxCell>
        <mxCell id="NsN-bHk12Julp6K8P8RK-9" value="Caixa eletrônico" style="swimlane;whiteSpace=wrap;html=1;" vertex="1" parent="1">
          <mxGeometry x="240" y="120" width="220" height="440" as="geometry">
            <mxRectangle x="240" y="120" width="130" height="30" as="alternateBounds" />
          </mxGeometry>
        </mxCell>
        <mxCell id="NsN-bHk12Julp6K8P8RK-12" value="Autenticação válida?" style="rhombus;whiteSpace=wrap;html=1;" vertex="1" parent="NsN-bHk12Julp6K8P8RK-9">
          <mxGeometry x="60" y="85" width="80" height="80" as="geometry" />
        </mxCell>
        <mxCell id="NsN-bHk12Julp6K8P8RK-14" value="" style="ellipse;html=1;shape=endState;fillColor=#000000;strokeColor=#ff0000;" vertex="1" parent="NsN-bHk12Julp6K8P8RK-9">
          <mxGeometry x="190" y="110" width="30" height="30" as="geometry" />
        </mxCell>
        <mxCell id="NsN-bHk12Julp6K8P8RK-16" value="Permitir a entrada do usuário na conta" style="html=1;whiteSpace=wrap;" vertex="1" parent="NsN-bHk12Julp6K8P8RK-9">
          <mxGeometry x="45" y="200" width="110" height="50" as="geometry" />
        </mxCell>
        <mxCell id="NsN-bHk12Julp6K8P8RK-15" value="" style="endArrow=open;endFill=1;endSize=12;html=1;rounded=0;exitX=0.5;exitY=1;exitDx=0;exitDy=0;" edge="1" parent="NsN-bHk12Julp6K8P8RK-9" source="NsN-bHk12Julp6K8P8RK-12" target="NsN-bHk12Julp6K8P8RK-16">
          <mxGeometry width="160" relative="1" as="geometry">
            <mxPoint x="-30" y="260" as="sourcePoint" />
            <mxPoint x="100" y="200" as="targetPoint" />
          </mxGeometry>
        </mxCell>
        <mxCell id="NsN-bHk12Julp6K8P8RK-23" value="Quantia disponível?" style="rhombus;whiteSpace=wrap;html=1;" vertex="1" parent="NsN-bHk12Julp6K8P8RK-9">
          <mxGeometry x="60" y="272.5" width="80" height="80" as="geometry" />
        </mxCell>
        <mxCell id="NsN-bHk12Julp6K8P8RK-25" value="" style="ellipse;html=1;shape=endState;fillColor=#000000;strokeColor=#ff0000;" vertex="1" parent="NsN-bHk12Julp6K8P8RK-9">
          <mxGeometry x="190" y="297.5" width="30" height="30" as="geometry" />
        </mxCell>
        <mxCell id="NsN-bHk12Julp6K8P8RK-24" value="" style="endArrow=open;endFill=1;endSize=12;html=1;rounded=0;exitX=1;exitY=0.5;exitDx=0;exitDy=0;" edge="1" parent="NsN-bHk12Julp6K8P8RK-9" source="NsN-bHk12Julp6K8P8RK-23" target="NsN-bHk12Julp6K8P8RK-25">
          <mxGeometry width="160" relative="1" as="geometry">
            <mxPoint x="-30" y="260" as="sourcePoint" />
            <mxPoint x="170" y="313" as="targetPoint" />
          </mxGeometry>
        </mxCell>
        <mxCell id="NsN-bHk12Julp6K8P8RK-28" value="Confirmar transação" style="html=1;whiteSpace=wrap;" vertex="1" parent="NsN-bHk12Julp6K8P8RK-9">
          <mxGeometry x="45" y="380" width="110" height="50" as="geometry" />
        </mxCell>
        <mxCell id="NsN-bHk12Julp6K8P8RK-27" value="" style="endArrow=open;endFill=1;endSize=12;html=1;rounded=0;exitX=0.5;exitY=1;exitDx=0;exitDy=0;" edge="1" parent="NsN-bHk12Julp6K8P8RK-9" source="NsN-bHk12Julp6K8P8RK-23" target="NsN-bHk12Julp6K8P8RK-28">
          <mxGeometry width="160" relative="1" as="geometry">
            <mxPoint x="-30" y="160" as="sourcePoint" />
            <mxPoint x="100" y="390" as="targetPoint" />
          </mxGeometry>
        </mxCell>
        <mxCell id="NsN-bHk12Julp6K8P8RK-7" value="" style="endArrow=open;endFill=1;endSize=12;html=1;rounded=0;exitX=1;exitY=0.5;exitDx=0;exitDy=0;" edge="1" parent="1" source="NsN-bHk12Julp6K8P8RK-6" target="NsN-bHk12Julp6K8P8RK-12">
          <mxGeometry width="160" relative="1" as="geometry">
            <mxPoint x="190" y="360" as="sourcePoint" />
            <mxPoint x="260" y="245" as="targetPoint" />
          </mxGeometry>
        </mxCell>
        <mxCell id="NsN-bHk12Julp6K8P8RK-13" value="" style="endArrow=open;endFill=1;endSize=12;html=1;rounded=0;exitX=1;exitY=0.5;exitDx=0;exitDy=0;" edge="1" parent="1" source="NsN-bHk12Julp6K8P8RK-12">
          <mxGeometry width="160" relative="1" as="geometry">
            <mxPoint x="210" y="380" as="sourcePoint" />
            <mxPoint x="430" y="245" as="targetPoint" />
          </mxGeometry>
        </mxCell>
        <mxCell id="NsN-bHk12Julp6K8P8RK-17" value="" style="endArrow=open;endFill=1;endSize=12;html=1;rounded=0;exitX=0;exitY=0.5;exitDx=0;exitDy=0;entryX=1;entryY=0.5;entryDx=0;entryDy=0;" edge="1" parent="1" source="NsN-bHk12Julp6K8P8RK-16" target="NsN-bHk12Julp6K8P8RK-18">
          <mxGeometry width="160" relative="1" as="geometry">
            <mxPoint x="210" y="380" as="sourcePoint" />
            <mxPoint x="190" y="345" as="targetPoint" />
          </mxGeometry>
        </mxCell>
        <mxCell id="NsN-bHk12Julp6K8P8RK-22" value="" style="endArrow=open;endFill=1;endSize=12;html=1;rounded=0;exitX=1;exitY=0.5;exitDx=0;exitDy=0;" edge="1" parent="1" source="NsN-bHk12Julp6K8P8RK-21" target="NsN-bHk12Julp6K8P8RK-23">
          <mxGeometry width="160" relative="1" as="geometry">
            <mxPoint x="210" y="380" as="sourcePoint" />
            <mxPoint x="290" y="433" as="targetPoint" />
          </mxGeometry>
        </mxCell>
        <mxCell id="NsN-bHk12Julp6K8P8RK-30" value="" style="endArrow=open;endFill=1;endSize=12;html=1;rounded=0;exitX=0;exitY=0.5;exitDx=0;exitDy=0;" edge="1" parent="1" source="NsN-bHk12Julp6K8P8RK-28" target="NsN-bHk12Julp6K8P8RK-31">
          <mxGeometry width="160" relative="1" as="geometry">
            <mxPoint x="210" y="480" as="sourcePoint" />
            <mxPoint x="200" y="525" as="targetPoint" />
          </mxGeometry>
        </mxCell>
        <mxCell id="NsN-bHk12Julp6K8P8RK-32" value="" style="endArrow=open;endFill=1;endSize=12;html=1;rounded=0;exitX=0.5;exitY=1;exitDx=0;exitDy=0;" edge="1" parent="1" source="NsN-bHk12Julp6K8P8RK-31" target="NsN-bHk12Julp6K8P8RK-33">
          <mxGeometry width="160" relative="1" as="geometry">
            <mxPoint x="210" y="480" as="sourcePoint" />
            <mxPoint x="130" y="600" as="targetPoint" />
          </mxGeometry>
        </mxCell>
        <mxCell id="NsN-bHk12Julp6K8P8RK-33" value="" style="ellipse;html=1;shape=endState;fillColor=#000000;strokeColor=#ff0000;" vertex="1" parent="1">
          <mxGeometry x="115" y="585" width="30" height="30" as="geometry" />
        </mxCell>
      </root>
    </mxGraphModel>
  </diagram>
</mxfile>
